<?xml version="1.0" standalone="no"?>
<!DOCTYPE svg PUBLIC "-//W3C//DTD SVG 20010904//EN"
 "http://www.w3.org/TR/2001/REC-SVG-20010904/DTD/svg10.dtd">
<svg version="1.0" xmlns="http://www.w3.org/2000/svg"
 width="487.000000pt" height="247.000000pt" viewBox="0 0 487.000000 247.000000"
 preserveAspectRatio="xMidYMid meet">

<g transform="translate(0.000000,247.000000) scale(0.100000,-0.100000)"
fill="#000000" stroke="none">
<path d="M260 1250 l0 -960 2150 0 2150 0 0 960 0 960 -2150 0 -2150 0 0 -960z
m4250 0 l0 -910 -2100 0 -2100 0 0 910 0 910 2100 0 2100 0 0 -910z"/>
<path d="M3223 1073 c-10 -3 -13 -61 -13 -239 l0 -234 35 0 35 0 0 240 0 240
-22 -1 c-13 0 -29 -3 -35 -6z"/>
<path d="M1770 1040 c-25 -25 -25 -42 -2 -63 24 -22 45 -21 65 1 23 25 21 48
-5 66 -29 20 -34 20 -58 -4z"/>
<path d="M3050 1040 c-25 -25 -25 -42 -2 -63 24 -22 45 -21 65 1 23 25 21 48
-5 66 -29 20 -34 20 -58 -4z"/>
<path d="M954 1021 c-64 -29 -89 -89 -89 -211 0 -152 45 -215 153 -215 113 0
156 61 157 220 0 110 -17 161 -67 198 -38 28 -104 32 -154 8z m91 -51 c37 -14
55 -65 55 -159 0 -93 -9 -124 -44 -147 -35 -22 -72 -11 -96 29 -16 25 -20 50
-20 115 0 113 17 151 77 171 1 1 13 -3 28 -9z"/>
<path d="M578 986 c-55 -41 -57 -43 -42 -65 l16 -22 44 26 44 26 0 -146 0
-145 -55 0 c-54 0 -55 0 -55 -30 l0 -30 135 0 135 0 0 29 c0 28 -3 30 -42 33
l-43 3 -3 183 -2 182 -38 -1 c-27 0 -52 -11 -94 -43z"/>
<path d="M2280 815 l0 -217 108 4 c130 4 188 27 230 91 24 36 27 50 27 126 0
72 -4 92 -23 123 -37 60 -96 82 -229 86 l-113 4 0 -217z m231 129 c37 -19 59
-67 59 -129 0 -102 -45 -145 -150 -145 l-60 0 0 145 0 145 60 0 c36 0 74 -7
91 -16z"/>
<path d="M1258 903 c-16 -4 -18 -20 -18 -154 l0 -149 40 0 40 0 0 119 c0 115
1 119 23 125 40 11 66 6 77 -13 5 -11 10 -67 10 -125 l0 -106 35 0 35 0 0 120
0 119 37 7 c62 12 68 2 71 -130 l3 -116 34 0 35 0 0 130 c0 126 -1 132 -25
155 -28 29 -69 32 -129 10 -34 -12 -42 -12 -60 1 -25 17 -62 18 -106 2 -26 -9
-35 -9 -38 0 -4 12 -31 14 -64 5z"/>
<path d="M1783 903 c-10 -3 -13 -44 -13 -154 l0 -149 35 0 35 0 0 155 c0 154
0 155 -22 154 -13 0 -29 -3 -35 -6z"/>
<path d="M1938 903 c-16 -4 -18 -20 -18 -154 l0 -149 40 0 40 0 0 119 c0 131
0 130 71 131 43 0 49 -16 49 -137 l0 -113 35 0 35 0 0 129 c0 108 -3 132 -18
151 -23 29 -87 37 -135 17 -32 -14 -37 -14 -37 -1 0 14 -25 17 -62 7z"/>
<path d="M2757 888 c-46 -22 -47 -24 -32 -45 15 -22 18 -22 45 -8 35 18 91 20
108 3 20 -20 15 -48 -9 -48 -45 0 -111 -24 -139 -50 -35 -33 -40 -85 -12 -120
23 -29 87 -37 135 -17 21 9 39 12 42 6 4 -5 19 -9 36 -9 l29 0 0 124 c0 116
-2 127 -23 152 -34 39 -113 44 -180 12z m133 -183 c0 -40 -20 -55 -73 -55 -36
0 -51 17 -41 45 9 21 53 44 87 45 24 0 27 -3 27 -35z"/>
<path d="M3063 903 c-10 -3 -13 -44 -13 -154 l0 -149 35 0 35 0 0 155 c0 154
0 155 -22 154 -13 0 -29 -3 -35 -6z"/>
<path d="M3378 753 c31 -82 60 -149 64 -151 14 -6 9 -28 -12 -50 -14 -15 -33
-22 -56 -22 -27 0 -37 -5 -43 -22 -11 -31 9 -42 66 -35 49 5 77 26 103 77 17
34 120 328 120 343 0 4 -15 7 -34 7 l-34 0 -32 -97 c-17 -54 -34 -105 -37
-113 -3 -8 -18 23 -34 70 -52 148 -47 140 -89 140 l-38 0 56 -147z"/>
</g>
</svg>
